<svg xmlns="http://www.w3.org/2000/svg">
  <symbol id="icon-user" viewBox="0 0 75 75" fill="none" xmlns="http://www.w3.org/2000/svg">
    <path fill-rule="evenodd" clip-rule="evenodd"
      d="M19.6878 1.45432C24.5579 0.372 30.4661 0 37.5 0C44.5339 0 50.442 0.372 55.3121 1.45432C60.225 2.54614 64.308 4.41 67.449 7.55092C70.59 10.6918 72.4538 14.7751 73.5457 19.6878C74.628 24.5579 75 30.4661 75 37.5C75 44.5339 74.628 50.442 73.5457 55.3121C72.4538 60.225 70.59 64.308 67.449 67.449C64.308 70.59 60.225 72.4538 55.3121 73.5457C50.442 74.628 44.5339 75 37.5 75C30.4661 75 24.5579 74.628 19.6878 73.5457C14.7751 72.4538 10.6918 70.59 7.55092 67.449C4.41 64.308 2.54614 60.225 1.45432 55.3121C0.372 50.442 0 44.5339 0 37.5C0 30.4661 0.372 24.5579 1.45432 19.6878C2.54614 14.7751 4.41 10.6918 7.55092 7.55092C10.6918 4.41 14.7751 2.54614 19.6878 1.45432ZM37.5 15C29.2157 15 22.5 21.7157 22.5 30C22.5 38.2841 29.2157 45 37.5 45C45.7841 45 52.5 38.2841 52.5 30C52.5 21.7157 45.7841 15 37.5 15ZM61.4156 57.3533C62.7386 59.5106 62.2706 62.3625 60.1384 63.7256C58.1996 64.9654 55.9343 65.7244 53.6846 66.2243C49.6208 67.1273 44.3621 67.5 37.4992 67.5C30.6367 67.5 25.3779 67.1273 21.3143 66.2243C19.1069 65.7337 16.8827 64.9946 14.9674 63.795C12.7968 62.4356 12.3196 59.5448 13.6753 57.3716C15.2364 54.8693 17.3878 52.9031 20.2831 51.504C24.6758 49.3815 30.4339 48.75 37.4985 48.75C44.5391 48.75 50.2909 49.3305 54.6776 51.3926C57.6476 52.7888 59.8395 54.7834 61.4156 57.3533Z"
      fill="currentColor" />
  </symbol>
  <symbol id="icon-theme-star" viewBox="0 0 6 6" fill="none" xmlns="http://www.w3.org/2000/svg">
    <path
      d="M3.46656 0.0365022L3.80954 2.18897L5.96265 2.52792L4.02152 3.51928L4.36451 5.67175L2.82183 4.13196L0.880699 5.12331L1.86841 3.18032L0.325735 1.64054L2.47885 1.97949L3.46656 0.0365022Z"
      fill="currentColor" />
  </symbol>
  <symbol id="icon-mail" xmlns="http://www.w3.org/2000/svg"
    xmlns:xlink="http://www.w3.org/1999/xlink"
    width="30px" height="30px" viewBox="0 0 485.211 485.211">
    <g>
      <path
        d="M485.211,363.906c0,10.637-2.992,20.498-7.785,29.174L324.225,221.67l151.54-132.584
      c5.895,9.355,9.446,20.344,9.446,32.219V363.906z M242.606,252.793l210.863-184.5c-8.653-4.737-18.397-7.642-28.908-7.642H60.651
      c-10.524,0-20.271,2.905-28.889,7.642L242.606,252.793z M301.393,241.631l-48.809,42.734c-2.855,2.487-6.41,3.729-9.978,3.729
      c-3.57,0-7.125-1.242-9.98-3.729l-48.82-42.736L28.667,415.23c9.299,5.834,20.197,9.329,31.983,9.329h363.911
      c11.784,0,22.687-3.495,31.983-9.329L301.393,241.631z M9.448,89.085C3.554,98.44,0,109.429,0,121.305v242.602
      c0,10.637,2.978,20.498,7.789,29.174l153.183-171.44L9.448,89.085z"
        fill="currentColor" />
    </g>
  </symbol>
  <symbol id="icon-github" xmlns="http://www.w3.org/2000/svg"
    xmlns:xlink="http://www.w3.org/1999/xlink"
    width="30px" height="30px" viewBox="0 0 438.549 438.549">
    <g>
      <path
        d="M409.132,114.573c-19.608-33.596-46.205-60.194-79.798-79.8C295.736,15.166,259.057,5.365,219.271,5.365
      c-39.781,0-76.472,9.804-110.063,29.408c-33.596,19.605-60.192,46.204-79.8,79.8C9.803,148.168,0,184.854,0,224.63
      c0,47.78,13.94,90.745,41.827,128.906c27.884,38.164,63.906,64.572,108.063,79.227c5.14,0.954,8.945,0.283,11.419-1.996
      c2.475-2.282,3.711-5.14,3.711-8.562c0-0.571-0.049-5.708-0.144-15.417c-0.098-9.709-0.144-18.179-0.144-25.406l-6.567,1.136
      c-4.187,0.767-9.469,1.092-15.846,1c-6.374-0.089-12.991-0.757-19.842-1.999c-6.854-1.231-13.229-4.086-19.13-8.559
      c-5.898-4.473-10.085-10.328-12.56-17.556l-2.855-6.57c-1.903-4.374-4.899-9.233-8.992-14.559
      c-4.093-5.331-8.232-8.945-12.419-10.848l-1.999-1.431c-1.332-0.951-2.568-2.098-3.711-3.429c-1.142-1.331-1.997-2.663-2.568-3.997
      c-0.572-1.335-0.098-2.43,1.427-3.289c1.525-0.859,4.281-1.276,8.28-1.276l5.708,0.853c3.807,0.763,8.516,3.042,14.133,6.851
      c5.614,3.806,10.229,8.754,13.846,14.842c4.38,7.806,9.657,13.754,15.846,17.847c6.184,4.093,12.419,6.136,18.699,6.136
      c6.28,0,11.704-0.476,16.274-1.423c4.565-0.952,8.848-2.383,12.847-4.285c1.713-12.758,6.377-22.559,13.988-29.41
      c-10.848-1.14-20.601-2.857-29.264-5.14c-8.658-2.286-17.605-5.996-26.835-11.14c-9.235-5.137-16.896-11.516-22.985-19.126
      c-6.09-7.614-11.088-17.61-14.987-29.979c-3.901-12.374-5.852-26.648-5.852-42.826c0-23.035,7.52-42.637,22.557-58.817
      c-7.044-17.318-6.379-36.732,1.997-58.24c5.52-1.715,13.706-0.428,24.554,3.853c10.85,4.283,18.794,7.952,23.84,10.994
      c5.046,3.041,9.089,5.618,12.135,7.708c17.705-4.947,35.976-7.421,54.818-7.421s37.117,2.474,54.823,7.421l10.849-6.849
      c7.419-4.57,16.18-8.758,26.262-12.565c10.088-3.805,17.802-4.853,23.134-3.138c8.562,21.509,9.325,40.922,2.279,58.24
      c15.036,16.18,22.559,35.787,22.559,58.817c0,16.178-1.958,30.497-5.853,42.966c-3.9,12.471-8.941,22.457-15.125,29.979
      c-6.191,7.521-13.901,13.85-23.131,18.986c-9.232,5.14-18.182,8.85-26.84,11.136c-8.662,2.286-18.415,4.004-29.263,5.146
      c9.894,8.562,14.842,22.077,14.842,40.539v60.237c0,3.422,1.19,6.279,3.572,8.562c2.379,2.279,6.136,2.95,11.276,1.995
      c44.163-14.653,80.185-41.062,108.068-79.226c27.88-38.161,41.825-81.126,41.825-128.906
      C438.536,184.851,428.728,148.168,409.132,114.573z"
        fill="currentColor" />
    </g>
  </symbol>
  <symbol id="icon-telegram" xmlns="http://www.w3.org/2000/svg" viewBox="0 0 512 512" width="30px" height="30px">
    <path
      d="M470.4354553,45.4225006L16.8273029,221.2490387c-18.253809,8.1874695-24.4278889,24.5854034-4.4127407,33.4840851l116.3710175,37.1726685l281.3674316-174.789505c15.3625488-10.9733887,31.0910339-8.0470886,17.5573425,4.023468L186.0532227,341.074646l-7.5913849,93.0762329c7.0313721,14.3716125,19.9055786,14.4378967,28.1172485,7.2952881l66.8582916-63.5891418l114.5050659,86.1867065c26.5942688,15.8265076,41.0652466,5.6130371,46.7870789-23.3935242L509.835083,83.1804428C517.6329956,47.474514,504.3345032,31.7425518,470.4354553,45.4225006z" fill="currentColor"/>
  </symbol>
  <symbol id="icon-cursor" viewBox="0 0 24 24"
    xmlns="http://www.w3.org/2000/svg" aria-hidden="true">
    <polygon
      points="3,2 3,19 7.5,14.5 10.5,21.5 12.5,20.5 9.5,13.5 16.5,13.5"
      fill="#ffffff"
      stroke="#000000"
      stroke-width="1"
      stroke-linejoin="round"
      stroke-linecap="round"
    />
  </symbol>
</svg>